Coordinates
version=1
nRows=13
nColumns=36
inDegrees=yes

Units are S.I. units (second, meters, Newtons, ...)
If the header above contains a line with 'inDegrees', this indicates whether rotational values are in degrees (yes) or radians (no).

endheader
time	pelvis_tilt	pelvis_list	pelvis_rotation	pelvis_tx	pelvis_ty	pelvis_tz	hip_flexion_r	hip_adduction_r	hip_rotation_r	knee_angle_r	knee_angle_r_beta	ankle_angle_r	subtalar_angle_r	mtp_angle_r	hip_flexion_l	hip_adduction_l	hip_rotation_l	knee_angle_l	knee_angle_l_beta	ankle_angle_l	subtalar_angle_l	mtp_angle_l	lumbar_extension	lumbar_bending	lumbar_rotation	arm_flex_r	arm_add_r	arm_rot_r	elbow_flex_r	pro_sup_r	arm_flex_l	arm_add_l	arm_rot_l	elbow_flex_l	pro_sup_l
     12.55000000	    -10.27485996	     -2.62651952	     -0.26538705	      0.00040257	      0.98883643	     -0.01830818	     43.62353043	     -0.83951285	      3.38211326	     16.60541998	      0.28981925	      7.20674945	     -7.31071184	     -7.49999987	     29.08449274	      4.44981103	      7.40555220	     31.73785046	      0.55392999	     17.81231315	    -12.34080166	     -7.49999987	    -10.59509644	      0.35215567	      0.64898686	     82.20942883	      0.78222823	     68.96531689	    121.55962493	     90.33128935	     80.00108388	     -4.89035635	     71.67210879	    113.08231316	     77.87167009
     12.56666670	    -10.55341937	     -2.45373805	     -0.30202912	     -0.00056462	      0.98443206	     -0.01821861	     44.87210176	     -1.00657702	      3.45476146	     16.98496736	      0.29644360	      7.00788971	     -7.50799549	     -7.49999987	     30.22130391	      4.65081936	      7.22497194	     33.60665480	      0.58654678	     18.39975009	    -12.34353213	     -7.49999987	    -10.89758150	      0.16227740	      0.65140848	     82.81298579	      0.95159487	     69.11891604	    122.22257696	     89.59862309	     80.54098373	     -4.83203584	     72.09434935	    113.42351592	     77.15648856
     12.58333330	    -10.78146088	     -2.38505011	     -0.53575587	     -0.00198964	      0.98007213	     -0.01917978	     46.08806368	     -0.94646377	      3.78214623	     17.50338045	      0.30549162	      6.66537636	     -7.58005067	     -7.49999987	     31.15201675	      4.68220920	      6.97996928	     35.32136263	      0.61647407	     19.02563711	    -11.69844596	     -7.49999987	    -11.16573999	      0.06053795	      0.74642670	     83.54788607	      1.03061108	     69.30341842	    122.22674757	     89.17117185	     81.29983239	     -4.96740435	     72.41823389	    113.89213964	     76.69592271
     12.60000000	    -10.81693309	     -2.34203231	     -0.61241965	     -0.00411110	      0.98045743	     -0.01850930	     46.77799964	     -0.99180590	      3.89399247	     17.28655736	      0.30170734	      6.25417994	     -7.42344976	     -7.49999987	     31.66402950	      4.88389841	      6.88080111	     36.37989491	      0.63494895	     18.99623596	    -10.96267669	     -7.49999987	    -11.70118664	      0.06157804	      0.88349349	     84.15477525	      1.08007777	     69.62628741	    122.64820803	     89.40184686	     81.73461972	     -5.12133470	     72.32985835	    114.10864638	     76.91019662
     12.61666670	    -10.78979796	     -2.41639479	     -0.78738853	     -0.00442810	      0.97672912	     -0.01884912	     47.34734877	     -0.86296013	      4.15174387	     17.05048987	      0.29758719	      5.89219402	     -7.30639511	     -7.49999987	     32.07790619	      4.82256557	      6.52555735	     37.43032681	      0.65328244	     19.23855080	     -9.60115491	     -7.49999987	    -12.29180691	      0.17144870	      1.05262179	     84.70505875	      1.16260011	     69.97210246	    122.72852064	     89.83322832	     82.14232623	     -5.47268202	     72.12093686	    113.97897207	     77.32710874
     12.63333330	    -10.66170636	     -2.69639714	     -0.93611071	     -0.00597711	      0.97113745	     -0.01828125	     47.99366434	     -0.58455428	      4.11182428	     17.30553531	      0.30203857	      5.51887396	     -7.56585464	     -7.49999987	     32.18994474	      4.68589441	      6.25967902	     38.49009860	      0.67177895	     18.16551226	     -8.70606977	     -7.49999987	    -12.91405132	      0.49936950	      1.15638961	     85.37896620	      1.32772450	     69.96250522	    122.34801334	     91.03312553	     82.70795902	     -5.78279893	     71.44567431	    113.81917718	     78.77493696
     12.65000000	    -10.32454352	     -3.09159271	     -0.97172034	     -0.00549031	      0.96998377	     -0.01986419	     48.11614908	     -0.31860700	      4.05669272	     17.23895618	      0.30087655	      5.32801579	     -7.34970920	     -7.49999987	     31.82666880	      4.60017003	      6.11102233	     38.92910897	      0.67944113	     16.93412892	     -7.64403269	     -7.49999987	    -13.68039153	      1.01940454	      1.31417003	     86.03793408	      1.36046353	     70.29625579	    122.17506128	     89.84368234	     83.21380762	     -5.72055472	     71.39617188	    113.79517496	     77.85054852
     12.66666670	    -10.14516179	     -3.24800085	     -1.00207431	     -0.00765786	      0.96460325	     -0.01974884	     48.55527281	     -0.16919938	      4.17299682	     17.16418883	      0.29957161	      5.36011544	     -7.29002267	     -7.49999987	     32.07811701	      4.66794293	      6.04300888	     39.55623896	      0.69038661	     15.99264678	     -7.01503306	     -7.49999987	    -14.22491921	      1.18394389	      1.46463291	     86.26023559	      1.42953812	     70.29670660	    122.19405140	     89.83502594	     83.49199808	     -5.83725491	     71.24866964	    113.52946818	     77.84375703
     12.68333330	    -10.10646132	     -3.38814159	     -0.91730814	     -0.00920447	      0.96066969	     -0.02077073	     49.10720542	     -0.15615851	      4.09276965	     17.17254267	      0.29971741	      5.48931825	     -7.77273089	     -7.49999987	     32.83614563	      4.57119663	      5.68902888	     40.58725936	      0.70838131	     15.92649227	     -6.10981565	     -7.49999987	    -14.98154835	      1.32442778	      1.65179693	     87.35762618	      1.03828284	     70.54408526	    122.85242618	     89.11274338	     84.26794146	     -5.58320828	     70.96921288	    113.07176360	     77.07157527
     12.70000000	    -10.06141365	     -3.40142936	     -0.93097081	     -0.01132919	      0.95418033	     -0.02063906	     49.76760309	     -0.11546602	      4.27519472	     17.34729085	      0.30276734	      5.66391534	     -8.18286885	     -7.49999987	     33.83979454	      4.51593856	      5.28966104	     42.08200951	      0.73446962	     16.71978535	     -5.69581099	     -7.49999987	    -15.60641137	      1.26258910	      1.99043154	     88.25454502	      0.82773842	     70.57603842	    123.20960419	     89.28572526	     84.98697522	     -5.40950504	     71.04510278	    113.33146939	     77.29153957
     12.71666670	    -10.03885424	     -3.42797069	     -0.78099375	     -0.01247877	      0.95229967	     -0.02100620	     50.25993659	     -0.14984265	      4.03015470	     17.33545969	      0.30256085	      5.60043980	     -8.25931013	     -7.49999987	     34.59247052	      4.49976303	      5.10846185	     43.28866230	      0.75552969	     16.53948767	     -5.60619261	     -7.49999987	    -16.03463566	      1.28278335	      1.87805110	     88.62499277	      0.71181563	     70.49290216	    123.22640881	     88.26911124	     85.46875814	     -5.61144312	     70.77194165	    112.53216251	     76.44657995
     12.73333330	     -9.71418654	     -3.31338725	     -0.66935508	     -0.01620826	      0.94949411	     -0.02031162	     50.43712862	     -0.25152047	      3.81074813	     17.14218330	      0.29918754	      5.37915292	     -8.46438004	     -7.49999987	     35.20291045	      4.64665134	      4.90478179	     44.83655094	      0.78254544	     16.10468252	     -5.27856157	     -7.49999987	    -17.08102196	      1.09315121	      1.84412754	     89.55215503	      0.77045997	     70.55143133	    123.14379679	     87.64108812	     86.34082275	     -5.74147223	     70.91548826	    112.89323896	     75.98572065
     12.75000000	     -9.66665260	     -3.14804968	     -0.69996682	     -0.01618713	      0.94299843	     -0.02010260	     51.00889785	     -0.34019433	      3.69121822	     17.17437091	      0.29974932	      5.37876024	     -8.51484370	     -7.49999987	     36.16225895	      4.81466777	      4.76527495	     46.48471624	      0.81131135	     16.42920176	     -5.01485236	     -7.49999987	    -17.68904510	      0.88621051	      1.94902851	     90.29157431	      0.68970052	     70.28174096	    123.00721800	     87.71786003	     87.01538405	     -5.75618514	     70.61782184	    113.10645749	     76.07738083
